# xmcd
#
# Track frame offsets:
#	150
#	13160
#	27099
#	41721
#	57496
#	72757
#	86614
#	104325
#	121683
#	137456
#	152914
#	168270
#	185046
#
# Disc length: 2703 seconds
#
# Revision: 0
# Processed by: cddbd v1.5.2PL0 Copyright (c) Steve Scherf et al.
# Submitted via: EasyCDDAExtractor 11.0.2.1
#
DISCID=a90a8d0d
DTITLE=Yummie - Sweet and sour
DYEAR=1900
DGENRE=Pop
TTITLE0=Pappa Joe
TTITLE1=Ay ay ay
TTITLE2=Bubblegum
TTITLE3=Easy come easy go
TTITLE4=Its so Yummie
TTITLE5=On the radio
TTITLE6=7 seas
TTITLE7=Bump
TTITLE8=Make my day
TTITLE9=Story goes on
TTITLE10=Hello
TTITLE11=Romeo and Juliet
TTITLE12=Get out of my face
EXTD=
EXTT0=
EXTT1=
EXTT2=
EXTT3=
EXTT4=
EXTT5=
EXTT6=
EXTT7=
EXTT8=
EXTT9=
EXTT10=
EXTT11=
EXTT12=
PLAYORDER=
